<svg xmlns="http://www.w3.org/2000/svg">

    <symbol id="icon-cisco-logo" viewBox="0 0 38 20">
        <path d="M1,5.25a1,1,0,0,0-1,1v1.5a1,1,0,0,0,2,0V6.25A1,1,0,0,0,1,5.25Z"/>
        <path d="M5.5,8.75a1,1,0,0,0,1-1V4.25a1,1,0,0,0-2,0v3.5A1,1,0,0,0,5.5,8.75Z"/>
        <path d="M15.5,7.75V4.25a1,1,0,0,0-2,0v3.5a1,1,0,0,0,2,0Z"/>
        <path d="M23.5,8.75a1,1,0,0,0,1-1V4.25a1,1,0,0,0-2,0v3.5A1,1,0,0,0,23.5,8.75Z"/>
        <path d="M32.5,8.75a1,1,0,0,0,1-1V4.25a1,1,0,0,0-2,0v3.5A1,1,0,0,0,32.5,8.75Z"/>
        <path d="M19,5.25a1,1,0,0,0-1,1v1.5a1,1,0,0,0,2,0V6.25A1,1,0,0,0,19,5.25Z"/>
        <path d="M37,5.25a1,1,0,0,0-1,1v1.5a1,1,0,0,0,2,0V6.25A1,1,0,0,0,37,5.25Z"/>
        <path d="M11,9.75V1.25a1,1,0,0,0-2,0v8.5a1,1,0,0,0,2,0Z"/>
        <path d="M29,9.75V1.25a1,1,0,0,0-2,0v8.5a1,1,0,0,0,2,0Z"/>
        <path d="M3,16.54A3.43,3.43,0,0,0,6.611,20a5.49,5.49,0,0,0,1.561-.238V17.969a3.044,3.044,0,0,1-1.438.354,1.785,1.785,0,1,1,0-3.565,3.018,3.018,0,0,1,1.438.356V13.321a5.292,5.292,0,0,0-1.561-.239A3.431,3.431,0,0,0,3,16.54Z"/>
        <path d="M20.859,16.54A3.432,3.432,0,0,0,24.474,20a5.515,5.515,0,0,0,1.559-.238V17.969a3.06,3.06,0,0,1-1.44.354,1.785,1.785,0,1,1,0-3.565,3.031,3.031,0,0,1,1.44.356V13.321a5.3,5.3,0,0,0-1.559-.239A3.432,3.432,0,0,0,20.859,16.54Z"/>
        <path d="M31.416,13.082A3.461,3.461,0,1,0,35,16.54,3.455,3.455,0,0,0,31.416,13.082Zm0,5.216a1.758,1.758,0,1,1,1.77-1.758A1.739,1.739,0,0,1,31.416,18.3Z"/>
        <rect x="10.524" y="13.2" width="1.711" height="6.681"/>
        <path d="M17.585,15.847l-.472-.149c-.282-.087-.785-.229-.785-.636,0-.321.373-.547,1.059-.547a5.945,5.945,0,0,1,1.338.2V13.292a7.442,7.442,0,0,0-1.668-.213c-1.578,0-2.527.84-2.527,2.089,0,1.106.794,1.658,1.748,1.955l.365.116c.424.132.763.327.763.666,0,.378-.391.623-1.243.623a6.482,6.482,0,0,1-1.616-.248v1.538A10.46,10.46,0,0,0,16.394,20c1.31,0,2.808-.564,2.808-2.242A2.016,2.016,0,0,0,17.585,15.847Z"/>
    </symbol>

    <symbol id="icon-help" viewBox="0 0 30 30">
        <path d="M15.123,19.531a1.044,1.044,0,1,0,1.044,1.044A1.043,1.043,0,0,0,15.123,19.531Z"/>
        <path d="M15,9a3.5,3.5,0,0,0-3.5,3.5,1.044,1.044,0,0,0,2.088,0,1.382,1.382,0,1,1,2.394.921l-1.228,1.167a2.162,2.162,0,0,0-.675,1.565v.737a1.044,1.044,0,0,0,2.088,0v-.737a.109.109,0,0,1,.03-.061l1.259-1.2A3.712,3.712,0,0,0,18.5,12.5,3.5,3.5,0,0,0,15,9Z"/>
    </symbol>

    <symbol id="icon-settings" viewBox="0 0 30 30">
        <path d="M15,18.675a3.67,3.67,0,1,1,3.667-3.67A3.669,3.669,0,0,1,15,18.675Zm8-3V14.339l-3.333-1.115c-.035-.091-.072-.181-.112-.27l1.578-3.139-.943-.944-3.148,1.572q-.131-.057-.264-.108L15.667,7H14.333l-1.11,3.335c-.089.034-.177.069-.264.108L9.819,8.871l-.943.944,1.569,3.139c-.04.088-.076.177-.11.267L7,14.339v1.334l3.331,1.1c.034.091.07.183.11.272L8.876,20.193l.943.944,3.131-1.573c.089.041.181.077.273.113L14.333,23h1.334l1.1-3.32c.094-.036.188-.073.28-.115l3.132,1.564.944-.944-1.568-3.129c.041-.092.078-.186.114-.281Z"/>
    </symbol>

    <symbol id="icon-user" viewBox="0 0 30 30">
        <path d="M21.573,18.37a.563.563,0,0,0-.241-.346L17.293,15.68a.764.764,0,0,1-.285-.334l-.476-1.066a4.3,4.3,0,0,0,1.091-2.9V9.625a2.623,2.623,0,1,0-5.246,0v1.75a4.3,4.3,0,0,0,1.092,2.9l-.476,1.066a.771.771,0,0,1-.285.334L8.669,18.024a.559.559,0,0,0-.241.346L8,21H22Z"/>
    </symbol>

    <symbol id="icon-identity-afr" viewBox="0 0 32 32">
      <path d="M28 32H4c-2.2 0-4-1.8-4-4V4c0-2.2 1.8-4 4-4h24c2.2 0 4 1.8 4 4v24c0 2.2-1.8 4-4 4z" fill="#049fd9"/>
      <path class="st1" d="M14.45 19.9l-.85-2.18H9.49l-.87 2.18H7.34l3.55-8.64h1.38l3.54 8.64h-1.36zm-4.57-3.18h3.32l-1.64-4.23-1.68 4.23zM19.73 12.22c-.38-.1-.67-.14-.95-.14-.42 0-.66.25-.66.64v.95h1.34v.98h-1.34v5.25h-1.15v-5.25h-.92v-.98h.92v-.88c0-1.03.71-1.7 1.74-1.7.42 0 .7.06 1.02.14v.99zM20.51 19.9v-6.24h.95l.16.92c.35-.72.89-1.1 1.58-1.1.3 0 .54.05.68.08v1.15c-.23-.06-.46-.11.73-.11-.79 0-1.49.59-1.49 2.16v3.13h-1.15z"/>
    </symbol>

    <symbol id="icon-identity-agi" viewBox="0 0 32 32">
      <path d="M28 32H4c-2.2 0-4-1.8-4-4V4c0-2.2 1.8-4 4-4h24c2.2 0 4 1.8 4 4v24c0 2.2-1.8 4-4 4z" fill="#049fd9"/>
      <path class="st1" d="M12.25 16.85h1.24c-.1 1.68-1.57 3.23-3.77 3.23-2.41 0-3.96-1.62-3.96-4.5 0-2.91 1.68-4.5 4.05-4.5 2.08 0 3.54 1.37 3.66 2.95h-1.24c-.16-1.18-1.09-1.93-2.42-1.93C8.16 12.1 7 13.24 7 15.58c0 2.23 1.12 3.47 2.73 3.47 1.41 0 2.44-.95 2.52-2.2zM17.59 19.96c-.31.08-.56.12-.85.12-1.1 0-1.67-.7-1.67-1.73v-3.71h-.92v-.98h.92l.07-1.5h1.08v1.5h1.34v.98h-1.34v3.73c0 .47.23.7.66.7.2 0 .36-.01.71-.1v.99zM18.6 12.62v-1.36h1.3v1.36h-1.3zm.07 7.28v-6.24h1.15v6.24h-1.15zM20.78 15.4c.12-1.15 1.12-1.92 2.67-1.92 1.63 0 2.54.88 2.54 2.16v4.26h-.95l-.14-.85c-.41.58-1.08 1.03-2.09 1.03-1.37 0-2.16-.77-2.16-1.79 0-1.14.68-1.79 2.36-2.08l1.82-.31v-.31c0-.77-.52-1.2-1.44-1.2-.89 0-1.32.38-1.4 1.01h-1.21zm4.07 2.21v-.8l-1.55.28c-1.12.19-1.42.54-1.42 1.09 0 .6.43.94 1.21.94.88-.01 1.76-.66 1.76-1.51z"/>
    </symbol>

    <symbol id="icon-identity-amp" viewBox="0 0 32 32">
      <path d="M28 32H4c-2.2 0-4-1.8-4-4V4c0-2.2 1.8-4 4-4h24c2.2 0 4 1.8 4 4v24c0 2.2-1.8 4-4 4z" fill="#750b76"/>
      <path class="st1" d="M10.21 19.9l-.85-2.18H5.25l-.87 2.18H3.1l3.55-8.64h1.38l3.54 8.64h-1.36zm-4.57-3.18h3.32l-1.64-4.23-1.68 4.23zM12.41 19.9v-6.24h.95l.12.73c.46-.66 1.14-.91 1.84-.91.83 0 1.49.34 1.83.98.48-.76 1.27-.98 2.03-.98 1.27 0 2.11.76 2.11 2.24v4.17h-1.15V15.8c0-.95-.41-1.34-1.21-1.34-.92 0-1.5.78-1.5 1.63v3.8h-1.15V15.8c0-.96-.42-1.34-1.21-1.34-.84 0-1.5.71-1.5 1.6v3.84h-1.16zM23.38 13.66l.18.82c.44-.58 1.15-1 2.11-1 1.64 0 2.75 1.18 2.75 3.25 0 2.16-1.19 3.35-2.83 3.35-.95 0-1.61-.41-2-.98v2.96h-1.15v-8.4h.94zm2.02.8c-1.03 0-1.88.76-1.88 2.24 0 1.51.76 2.39 1.88 2.39 1.08 0 1.81-.74 1.81-2.39.01-1.53-.77-2.24-1.81-2.24z"/>
    </symbol>

    <symbol id="icon-identity-firepower" viewBox="0 0 32 32">
      <path d="M29 32H3c-1.65 0-3-1.35-3-3V3c0-1.65 1.35-3 3-3h26c1.65 0 3 1.35 3 3v26c0 1.65-1.35 3-3 3z" fill="#392f91"/>
      <path d="M18.68 16.25h-3.65v3.65h-1.22v-8.64h5.29v1.03h-4.07v2.94h3.65v1.02z" fill="#fff"/>
    </symbol>

    <symbol id="icon-identity-pagi" viewBox="0 0 32 32">
      <path d="M28 32H4c-2.2 0-4-1.8-4-4V4c0-2.2 1.8-4 4-4h24c2.2 0 4 1.8 4 4v24c0 2.2-1.8 4-4 4z" fill="#049fd9"/>
      <path d="M14.15 11.26c2.17 0 3.38.98 3.38 2.81 0 1.75-1.16 2.75-3.43 2.75h-1.54v3.08h-1.22v-8.64h2.81zm-1.59 1v3.56h1.56c1.52 0 2.13-.62 2.13-1.75 0-1.14-.73-1.81-2.09-1.81h-1.6zM18.78 12.62v-1.36h1.29v1.36h-1.29zm.07 7.28v-6.24H20v6.24h-1.15z"/>
    </symbol>

    <symbol id="icon-identity-sma" viewBox="0 0 32 32">
      <path d="M28 32H4c-2.2 0-4-1.8-4-4V4c0-2.2 1.8-4 4-4h24c2.2 0 4 1.8 4 4v24c0 2.2-1.8 4-4 4z" fill="#6137a6"/>
      <path class="st1" d="M6.88 15.74c-2-.55-2.63-1.26-2.63-2.45 0-1.26 1.12-2.22 3.09-2.22 1.85 0 3.2.88 3.42 2.34H9.5c-.13-.84-.86-1.33-2.16-1.33-1.32 0-1.87.52-1.87 1.16 0 .67.29 1 2.27 1.55 2.4.67 3.08 1.38 3.08 2.71 0 1.34-1.22 2.57-3.37 2.57-1.86 0-3.26-1.02-3.5-2.6h1.26c.14.97.94 1.6 2.22 1.6 1.44 0 2.17-.7 2.17-1.51s-.4-1.18-2.72-1.82zM12.21 19.89v-6.24h.95l.12.73c.46-.66 1.14-.91 1.84-.91.83 0 1.49.34 1.83.98.48-.76 1.27-.98 2.03-.98 1.27 0 2.11.76 2.11 2.24v4.17h-1.15V15.8c0-.95-.41-1.34-1.21-1.34-.92 0-1.5.78-1.5 1.63v3.8h-1.15V15.8c0-.96-.42-1.34-1.21-1.34-.84 0-1.5.71-1.5 1.6v3.84h-1.16zM22.47 15.4c.12-1.15 1.12-1.92 2.67-1.92 1.63 0 2.54.88 2.54 2.16v4.26h-.95l-.14-.85c-.41.58-1.08 1.03-2.09 1.03-1.37 0-2.16-.77-2.16-1.79 0-1.14.68-1.79 2.36-2.08l1.82-.31v-.31c0-.77-.52-1.2-1.44-1.2-.89 0-1.32.38-1.4 1.01h-1.21zm4.06 2.2v-.8l-1.55.28c-1.12.19-1.42.54-1.42 1.09 0 .6.43.94 1.21.94.89-.01 1.76-.65 1.76-1.51z"/>
    </symbol>

    <symbol id="icon-identity-sme" viewBox="0 0 32 32">
      <path d="M28 32H4c-2.2 0-4-1.8-4-4V4c0-2.2 1.8-4 4-4h24c2.2 0 4 1.8 4 4v24c0 2.2-1.8 4-4 4z" fill="#0f43ae"/>
      <path class="st1" d="M7.35 15.74c-2-.55-2.63-1.26-2.63-2.45 0-1.26 1.12-2.22 3.09-2.22 1.85 0 3.2.88 3.42 2.34H9.97c-.13-.84-.86-1.33-2.16-1.33-1.32 0-1.87.52-1.87 1.16 0 .67.29 1 2.27 1.55 2.4.67 3.08 1.38 3.08 2.71 0 1.34-1.22 2.57-3.37 2.57-1.86 0-3.26-1.02-3.5-2.6h1.26c.14.97.94 1.6 2.22 1.6 1.44 0 2.17-.7 2.17-1.51s-.4-1.18-2.72-1.82zM21.25 13.66l-1.82 6.24H18.1l-1.51-4.93-1.49 4.93h-1.38l-1.82-6.24h1.2l1.34 5.01 1.49-5.01h1.38l1.46 4.99 1.33-4.99h1.15zM27.38 18.1c-.31 1.14-1.3 1.98-2.79 1.98-1.77 0-3.06-1.1-3.06-3.3 0-2.17 1.27-3.3 3-3.3s2.93 1.03 2.93 3.55h-4.75c.1 1.44.88 2.07 1.92 2.07.76 0 1.33-.43 1.51-1.01h1.24zm-4.62-1.98h3.53c-.08-1.16-.77-1.71-1.73-1.71-.93-.01-1.63.55-1.8 1.71z"/>
    </symbol>

    <symbol id="icon-identity-talos" viewBox="0 0 32 32">
      <path d="M28 32H4c-2.2 0-4-1.8-4-4V4c0-2.2 1.8-4 4-4h24c2.2 0 4 1.8 4 4v24c0 2.2-1.8 4-4 4z" fill="#049fd9"/>
      <path class="st1" d="M17.9 12.35H15v7.54h-1.22v-7.54h-2.87v-1.09h6.99v1.09zM18.79 12.62v-1.36h1.3v1.36h-1.3zm.07 7.28v-6.24h1.15v6.24h-1.15z"/>
    </symbol>

    <symbol id="icon-identity-threatgrid" viewBox="0 0 32 32">
      <path d="M28 32H4c-2.2 0-4-1.8-4-4V4c0-2.2 1.8-4 4-4h24c2.2 0 4 1.8 4 4v24c0 2.2-1.8 4-4 4z" fill="#037b8d"/>
      <path class="st1" d="M16.32 12.35h-2.9v7.54H12.2v-7.54H9.33v-1.09h6.99v1.09zM17.49 20.31c.11.62.64 1.01 1.55 1.01 1.16 0 1.76-.59 1.76-1.62v-.8c-.42.49-1.12.82-2.07.82-1.46 0-2.76-1.09-2.76-3.08 0-1.96 1.14-3.15 2.83-3.15.97 0 1.63.42 2.03 1.01l.17-.84h.95v6.1c0 1.42-1.03 2.47-2.88 2.47-1.67 0-2.61-.76-2.82-1.92h1.24zm1.49-1.58c1.19 0 1.88-.78 1.88-2.04 0-1.46-.77-2.23-1.88-2.23-1.06 0-1.81.71-1.81 2.19 0 1.32.81 2.08 1.81 2.08z"/>
    </symbol>

    <symbol id="icon-identity-umbrella" viewBox="0 0 32 32">
      <path d="M28 32H4c-2.2 0-4-1.8-4-4V4c0-2.2 1.8-4 4-4h24c2.2 0 4 1.8 4 4v24c0 2.2-1.8 4-4 4z" fill="#157710"/>
      <path d="M13.82 11.26v5.85c0 1.15.78 1.93 2.19 1.93 1.42 0 2.19-.79 2.19-1.93v-5.85h1.19V17c0 1.91-1.35 3.07-3.39 3.07-2.09 0-3.41-1.21-3.41-3.07v-5.74h1.23z" fill="#fff"/>
    </symbol>

    <symbol id="icon-identity-virustotal" viewBox="0 0 32 32">
      <path d="M0 1.55l14.5 14.47L0 30.45h32V1.55H0zm28.9 25.81H7.29l11.43-11.34L7.29 4.64H28.9v22.72z" fill="#394eff"/>
    </symbol>

    <symbol id="icon-identity-smaemail" viewBox="0 0 32 32">
      <path fill="#6137a6" d="M28 32H4c-2.2 0-4-1.8-4-4V4c0-2.2 1.8-4 4-4h24c2.2 0 4 1.8 4 4v24c0 2.2-1.8 4-4 4z"/>
      <path fill="#ffffff" d="M6.88 12.08c-2-.55-2.63-1.26-2.63-2.45 0-1.26 1.12-2.22 3.09-2.22 1.85 0 3.2.88 3.42 2.34H9.5c-.13-.84-.86-1.33-2.15-1.33-1.32 0-1.87.52-1.87 1.16 0 .67.29 1 2.27 1.55 2.4.67 3.08 1.38 3.08 2.71 0 1.34-1.22 2.57-3.37 2.57-1.86 0-3.26-1.02-3.5-2.6h1.26c.14.97.94 1.6 2.22 1.6 1.44 0 2.17-.7 2.17-1.51-.01-.82-.41-1.19-2.73-1.82zM12.21 16.23V9.99h.95l.12.73c.46-.66 1.14-.91 1.84-.91.83 0 1.49.34 1.83.98.48-.76 1.27-.98 2.03-.98 1.27 0 2.11.76 2.11 2.24v4.17h-1.15v-4.09c0-.95-.41-1.34-1.21-1.34-.92 0-1.5.78-1.5 1.63v3.8h-1.15v-4.09c0-.96-.42-1.34-1.21-1.34-.84 0-1.5.71-1.5 1.6v3.84h-1.16zM22.47 11.73c.12-1.15 1.12-1.92 2.67-1.92 1.63 0 2.54.88 2.54 2.16v4.26h-.95l-.14-.85c-.41.58-1.08 1.03-2.09 1.03-1.37 0-2.16-.77-2.16-1.79 0-1.14.68-1.79 2.36-2.08l1.82-.31v-.31c0-.77-.52-1.2-1.44-1.2-.89 0-1.32.38-1.4 1.01h-1.21zm4.06 2.21v-.8l-1.55.28c-1.12.19-1.42.54-1.42 1.09 0 .6.43.94 1.21.94.89-.02 1.76-.66 1.76-1.51z"/>
      <g>
        <path fill="#ffffff" d="M10.07 21.42H7.53v1.9h2.77v.69H6.72v-5.76h3.59v.69H7.53v1.81h2.54v.67zM11.27 24.01v-4.16h.63l.08.49c.3-.44.76-.61 1.22-.61.55 0 .99.22 1.22.66.32-.5.85-.66 1.35-.66.85 0 1.41.5 1.41 1.5v2.78h-.77v-2.73c0-.63-.27-.9-.81-.9-.62 0-1 .52-1 1.09V24h-.77v-2.73c0-.64-.28-.9-.81-.9-.56 0-1 .47-1 1.06v2.56h-.75zM18.11 21.01c.08-.77.74-1.28 1.78-1.28 1.09 0 1.7.58 1.7 1.44v2.84h-.63l-.1-.57c-.27.38-.72.69-1.39.69-.91 0-1.44-.51-1.44-1.19 0-.76.46-1.19 1.57-1.38l1.22-.21v-.21c0-.51-.34-.8-.96-.8-.59 0-.88.26-.93.67h-.82zm2.71 1.48v-.54l-1.03.18c-.74.13-.94.36-.94.73 0 .4.29.62.81.62.57.01 1.16-.43 1.16-.99zM22.62 19.16v-.9h.86v.9h-.86zm.05 4.85v-4.16h.77v4.16h-.77zM25.32 24.01h-.77v-5.76h.77v5.76z"/>
      </g>
    </symbol>

    <symbol id="icon-identity-smaweb" viewBox="0 0 32 32">
      <path fill="#095b04" d="M28 32H4c-2.2 0-4-1.8-4-4V4c0-2.2 1.8-4 4-4h24c2.2 0 4 1.8 4 4v24c0 2.2-1.8 4-4 4z"/>
      <path fill="#ffffff" d="M6.88 12.08c-2-.55-2.63-1.26-2.63-2.45 0-1.26 1.12-2.22 3.09-2.22 1.85 0 3.2.88 3.42 2.34H9.5c-.13-.84-.86-1.33-2.15-1.33-1.32 0-1.87.52-1.87 1.16 0 .67.29 1 2.27 1.55 2.4.67 3.08 1.38 3.08 2.71 0 1.34-1.22 2.57-3.37 2.57-1.86 0-3.26-1.02-3.5-2.6h1.26c.14.97.94 1.6 2.22 1.6 1.44 0 2.17-.7 2.17-1.51-.01-.82-.41-1.19-2.73-1.82zM12.21 16.23V9.99h.95l.12.73c.46-.66 1.14-.91 1.84-.91.83 0 1.49.34 1.83.98.48-.76 1.27-.98 2.03-.98 1.27 0 2.11.76 2.11 2.24v4.17h-1.15v-4.09c0-.95-.41-1.34-1.21-1.34-.92 0-1.5.78-1.5 1.63v3.8h-1.15v-4.09c0-.96-.42-1.34-1.21-1.34-.84 0-1.5.71-1.5 1.6v3.84h-1.16zM22.47 11.73c.12-1.15 1.12-1.92 2.67-1.92 1.63 0 2.54.88 2.54 2.16v4.26h-.95l-.14-.85c-.41.58-1.08 1.03-2.09 1.03-1.37 0-2.16-.77-2.16-1.79 0-1.14.68-1.79 2.36-2.08l1.82-.31v-.31c0-.77-.52-1.2-1.44-1.2-.89 0-1.32.38-1.4 1.01h-1.21zm4.06 2.21v-.8l-1.55.28c-1.12.19-1.42.54-1.42 1.09 0 .6.43.94 1.21.94.89-.02 1.76-.66 1.76-1.51z"/><g><path fill="#ffffff" d="M15.16 18.26l-1.52 5.76h-.94l-1.3-4.88-1.34 4.88h-1l-1.51-5.76h.83l1.22 4.79 1.32-4.79h1.02l1.25 4.77 1.23-4.77h.74zM19.22 22.81c-.21.76-.86 1.32-1.86 1.32-1.18 0-2.04-.74-2.04-2.2 0-1.45.85-2.2 2-2.2s1.95.69 1.95 2.37H16.1c.06.96.58 1.38 1.28 1.38.5 0 .89-.29 1.01-.67h.83zm-3.09-1.32h2.35c-.06-.78-.51-1.14-1.15-1.14-.61 0-1.08.38-1.2 1.14zM20.19 24.01v-5.76h.77v2.17c.28-.4.74-.7 1.39-.7 1.09 0 1.83.78 1.83 2.17 0 1.44-.79 2.23-1.89 2.23-.64 0-1.08-.28-1.35-.67l-.12.55h-.63zm1.98-3.62c-.69 0-1.26.5-1.26 1.5 0 1.01.5 1.59 1.26 1.59.72 0 1.21-.5 1.21-1.59 0-1.03-.52-1.5-1.21-1.5z"/>
    </g></symbol>

    <symbol id="icon-identity-esa" viewBox="0 0 32 32">
      <path fill="#6137a6" d="M28 32H4c-2.2 0-4-1.8-4-4V4c0-2.2 1.8-4 4-4h24c2.2 0 4 1.8 4 4v24c0 2.2-1.8 4-4 4z"/>
      <path fill="#ffffff" d="M12.13 16.01H8.31v2.85h4.16v1.03H7.09v-8.64h5.39v1.03H8.31V15h3.81v1.01zM15.75 17.05c-1.46-.32-2.05-.88-2.05-1.8 0-1.07.85-1.77 2.42-1.77 1.39 0 2.35.68 2.55 1.82H17.5c-.13-.58-.6-.91-1.39-.91-.86 0-1.25.32-1.25.76 0 .48.25.7 1.45.96 1.45.32 2.41.73 2.41 2.02 0 1.14-.95 1.95-2.6 1.95-1.56 0-2.58-.77-2.69-1.97h1.18c.13.74.65 1.06 1.52 1.06.94 0 1.43-.42 1.43-.96 0-.74-.69-.91-1.81-1.16zM19.81 15.4c.12-1.15 1.12-1.92 2.67-1.92 1.63 0 2.54.88 2.54 2.16v4.26h-.95l-.14-.85c-.41.58-1.08 1.03-2.09 1.03-1.37 0-2.16-.77-2.16-1.79 0-1.14.68-1.79 2.36-2.08l1.82-.31v-.31c0-.77-.52-1.2-1.44-1.2-.89 0-1.32.38-1.4 1.01h-1.21zm4.06 2.2v-.8l-1.55.28c-1.12.19-1.42.54-1.42 1.09 0 .6.43.94 1.21.94.89-.01 1.76-.65 1.76-1.51z"/>
    </symbol>

    <symbol id="icon-identity-wsa" viewBox="0 0 32 32">
      <path fill="#095b04" d="M28 32H4c-2.2 0-4-1.8-4-4V4c0-2.2 1.8-4 4-4h24c2.2 0 4 1.8 4 4v24c0 2.2-1.8 4-4 4z"/>
      <path fill="#ffffff" d="M15.71 11.26l-2.28 8.64h-1.42l-1.96-7.32-2.02 7.32h-1.5l-2.27-8.64h1.25l1.83 7.18 1.98-7.18h1.52l1.87 7.16 1.85-7.16h1.15zM17.73 17.05c-1.46-.32-2.05-.88-2.05-1.8 0-1.07.85-1.77 2.42-1.77 1.39 0 2.35.68 2.55 1.82h-1.18c-.13-.58-.6-.91-1.39-.91-.86 0-1.25.32-1.25.76 0 .48.25.7 1.45.96 1.45.32 2.41.73 2.41 2.02 0 1.14-.95 1.95-2.6 1.95-1.56 0-2.58-.77-2.69-1.97h1.18c.13.74.65 1.06 1.52 1.06.94 0 1.43-.42 1.43-.96.01-.74-.68-.91-1.8-1.16zM21.79 15.4c.12-1.15 1.12-1.92 2.67-1.92 1.63 0 2.54.88 2.54 2.16v4.26h-.95l-.14-.85c-.41.58-1.08 1.03-2.09 1.03-1.37 0-2.16-.77-2.16-1.79 0-1.14.68-1.79 2.36-2.08l1.82-.31v-.31c0-.77-.52-1.2-1.44-1.2-.89 0-1.32.38-1.4 1.01h-1.21zm4.06 2.2v-.8l-1.55.28c-1.12.19-1.42.54-1.42 1.09 0 .6.43.94 1.21.94.89-.01 1.76-.66 1.76-1.51z"/>
    </symbol>

    <symbol id="icon-identity-swe" viewBox="0 0 32 32">
      <path fill="#0f43ae" d="M28 32H4c-2.2 0-4-1.8-4-4V4c0-2.2 1.8-4 4-4h24c2.2 0 4 1.8 4 4v24c0 2.2-1.8 4-4 4z"/>
      <path fill="#ffffff" d="M7.35 15.74c-2-.55-2.63-1.26-2.63-2.45 0-1.26 1.12-2.22 3.09-2.22 1.85 0 3.2.88 3.42 2.34H9.97c-.13-.84-.86-1.33-2.16-1.33-1.32 0-1.87.52-1.87 1.16 0 .67.29 1 2.27 1.55 2.4.67 3.08 1.38 3.08 2.71 0 1.34-1.22 2.57-3.37 2.57-1.86 0-3.26-1.02-3.5-2.6h1.26c.14.97.94 1.6 2.22 1.6 1.44 0 2.17-.7 2.17-1.51s-.4-1.18-2.72-1.82zM21.25 13.66l-1.82 6.24H18.1l-1.51-4.93-1.49 4.93h-1.38l-1.82-6.24h1.2l1.34 5.01 1.49-5.01h1.38l1.46 4.99 1.33-4.99h1.15zM27.38 18.1c-.31 1.14-1.3 1.98-2.79 1.98-1.77 0-3.06-1.1-3.06-3.3 0-2.17 1.27-3.3 3-3.3s2.93 1.03 2.93 3.55h-4.75c.1 1.44.88 2.07 1.92 2.07.76 0 1.33-.43 1.51-1.01h1.24zm-4.62-1.98h3.53c-.08-1.16-.77-1.71-1.73-1.71-.93-.01-1.63.55-1.8 1.71z"/>
    </symbol>

    <symbol id="icon-identity-orbital" viewBox="0 0 32 32">
      <path d="M28 32H4c-2.2 0-4-1.8-4-4V4c0-2.2 1.8-4 4-4h24c2.2 0 4 1.8 4 4v24c0 2.2-1.8 4-4 4z" fill="#500351"/>
      <path class="st1" d="M6.23 15.58c0-2.9 1.83-4.5 4.11-4.5s4.09 1.52 4.09 4.5c0 2.85-1.77 4.5-4.1 4.5-2.4 0-4.1-1.65-4.1-4.5zm6.95 0c0-2.28-1.16-3.5-2.85-3.5-1.69 0-2.85 1.22-2.85 3.5s1.16 3.5 2.85 3.5c1.69 0 2.85-1.22 2.85-3.5zM15.57 19.9v-6.24h.95l.16.92c.35-.72.89-1.1 1.58-1.1.3 0 .54.05.68.08v1.15c-.23-.06-.46-.11-.73-.11-.79 0-1.49.59-1.49 2.16v3.13h-1.15zM19.85 19.9v-8.63H21v3.26c.42-.6 1.12-1.04 2.09-1.04 1.64 0 2.75 1.17 2.75 3.25 0 2.16-1.19 3.35-2.83 3.35-.96 0-1.62-.42-2.03-1.01l-.18.83h-.95zm2.97-5.44c-1.03 0-1.88.76-1.88 2.24 0 1.51.76 2.39 1.88 2.39 1.08 0 1.81-.74 1.81-2.39 0-1.53-.78-2.24-1.81-2.24z"/>
    </symbol>

    <symbol id="icon-identity-cdo" viewBox="0 0 32 32">
      <path fill="#191970" d="M28 0H4C1.8 0 0 1.8 0 4v24c0 2.2 1.8 4 4 4h24c2.2 0 4-1.8 4-4V4c0-2.2-1.8-4-4-4z"/>
      <path fill="#ffffff" d="M11.95 16.59h1.24c-.1 1.69-1.58 3.24-3.79 3.24-2.42 0-3.98-1.63-3.98-4.52 0-2.93 1.69-4.52 4.07-4.52 2.09 0 3.56 1.38 3.68 2.97h-1.24c-.16-1.18-1.1-1.94-2.44-1.94-1.66 0-2.82 1.14-2.82 3.5 0 2.24 1.12 3.48 2.75 3.48 1.42-.01 2.45-.96 2.53-2.21zM19.22 19.65l-.2-.88c-.42.61-1.11 1.06-2.09 1.06-1.58 0-2.77-1.16-2.77-3.28 0-2.24 1.17-3.35 2.84-3.35.95 0 1.6.41 2.01.98v-3.21h1.16v8.68h-.95zm-2.04-.81c1.19 0 1.89-.94 1.89-2.25 0-1.53-.74-2.4-1.89-2.4-1.1 0-1.82.75-1.82 2.39 0 1.5.77 2.26 1.82 2.26zM24.36 13.2c1.71 0 3.09 1.06 3.09 3.32 0 2.19-1.33 3.31-3.1 3.31-1.75 0-3.09-1.15-3.09-3.31 0-2.26 1.4-3.32 3.1-3.32zm.01 5.69c1.11 0 1.87-.82 1.87-2.37 0-1.59-.81-2.38-1.88-2.38s-1.89.81-1.89 2.38c0 1.55.82 2.37 1.9 2.37z"/>
    </symbol>

    <symbol id="icon-add" viewBox="0 0 16 16">
        <path d="M8.72727273,7.27272727 L8.72727273,0.727272727 C8.72727273,0.325818182 8.40145455,0 8,0 C7.59854545,0 7.27272727,0.325818182 7.27272727,0.727272727 L7.27272727,7.27272727 L0.727272727,7.27272727 C0.325818182,7.27272727 0,7.59854545 0,8 C0,8.40145455 0.325818182,8.72727273 0.727272727,8.72727273 L7.27272727,8.72727273 L7.27272727,15.2727273 C7.27272727,15.6741818 7.59854545,16 8,16 C8.40145455,16 8.72727273,15.6741818 8.72727273,15.2727273 L8.72727273,8.72727273 L15.2727273,8.72727273 C15.6741818,8.72727273 16,8.40145455 16,8 C16,7.59854545 15.6741818,7.27272727 15.2727273,7.27272727 L8.72727273,7.27272727 Z"/>
    </symbol>

    <symbol id="icon-remove" viewBox="0 0 48 48">
        <path d="M44,22H4a2,2,0,0,0,0,4H44a2,2,0,0,0,0-4Z"/>
    </symbol>

    <symbol id="icon-tile-help" viewBox="0 0 32 32">
        <path d="M16.3 26.7c-1.5 0-2.6 1.2-2.6 2.6 0 1.5 1.2 2.6 2.6 2.6 1.5 0 2.6-1.2 2.6-2.6.1-1.4-1.1-2.6-2.6-2.6zM16 0c-4.9 0-8.9 4-8.9 8.9 0 1.5 1.2 2.6 2.6 2.6 1.5 0 2.6-1.2 2.6-2.6 0-1.9 1.6-3.5 3.5-3.5s3.5 1.6 3.5 3.5c0 .9-.4 1.8-.9 2.3l-3.1 3c-1.1 1-1.7 2.5-1.7 4V20c0 1.5 1.2 2.6 2.6 2.6 1.5 0 2.6-1.2 2.6-2.6v-1.9c.2 0 .2-.1.2-.1l3.2-3c1.6-1.6 2.5-3.8 2.6-6.1C24.9 4 20.9 0 16 0z"/>
    </symbol>

    <symbol id="icon-tile-observable" viewBox="0 0 32 32">
        <path d="M28.1 9.6c-2.1 0-3.7 1.7-3.7 3.7 0 .2 0 .4.1.6l-3.1.2c-.8-1.6-2.4-2.8-4.3-3.2l-.4-3.2c1.8-.3 3.1-1.8 3.1-3.7 0-2.1-1.7-3.7-3.7-3.7S12.3 2 12.3 4.1c0 1.9 1.4 3.4 3.1 3.7L15 11c-1.9.3-3.5 1.5-4.3 3.2L7.6 14c0-.2.1-.4.1-.6C7.7 11.3 6 9.7 4 9.7S.3 11.4.3 13.4 2 17.1 4 17.1c1.4 0 2.7-.8 3.3-2l2.9 1c0 .3-.1.5-.1.8 0 1.6.7 3.1 1.7 4.2L10 24.7c-.5-.3-1.1-.4-1.7-.4-2.1 0-3.7 1.7-3.7 3.7s1.7 3.7 3.7 3.7S12 30 12 27.9c0-1-.4-1.9-1.1-2.6l2.5-3.1c.8.4 1.7.6 2.6.6.9 0 1.8-.2 2.6-.6l2.5 3.1c-.7.7-1.1 1.6-1.1 2.6 0 2.1 1.7 3.7 3.7 3.7s3.7-1.7 3.7-3.7-1.7-3.7-3.7-3.7c-.6 0-1.2.2-1.7.4L20.2 21c1.1-1.1 1.7-2.6 1.7-4.2 0-.3 0-.5-.1-.8l2.9-1c.6 1.2 1.9 2 3.3 2 2.1 0 3.7-1.7 3.7-3.7s-1.5-3.7-3.6-3.7zm-24.2 6c-1.2 0-2.2-1-2.2-2.2s1-2.2 2.2-2.2 2.2 1 2.2 2.2-1 2.2-2.2 2.2zm9.9-11.5c0-1.2 1-2.2 2.2-2.2s2.2 1 2.2 2.2-1 2.2-2.2 2.2-2.2-1-2.2-2.2zM8.3 30.2c-1.2 0-2.2-1-2.2-2.2s1-2.2 2.2-2.2 2.2 1 2.2 2.2-1 2.2-2.2 2.2zM13 16.9c0-1.6 1.3-3 3-3 1.6 0 3 1.3 3 3 0 1.6-1.3 3-3 3-1.6 0-3-1.4-3-3zm13 11c0 1.2-1 2.2-2.2 2.2s-2.2-1-2.2-2.2 1-2.2 2.2-2.2 2.2 1 2.2 2.2zm2.1-12.3c-1.2 0-2.2-1-2.2-2.2s1-2.2 2.2-2.2 2.2 1 2.2 2.2-.9 2.2-2.2 2.2z"/>
    </symbol>

    <symbol id="icon-tile-video" viewBox="0 0 48 48">
        <path d="M47.916,13.173c0-0.005-8.229,4.837-12.63,7.429v-9.233c0-0.996-0.808-1.804-1.805-1.804H8.224 c-0.996,0-1.804,0.808-1.804,1.804V36.63c0,0.996,0.808,1.805,1.804,1.805h25.258c0.997,0,1.805-0.809,1.805-1.805v-9.232 c4.401,2.592,12.63,7.434,12.63,7.429V13.173z"/>
    </symbol>

    <symbol id="icon-add-module" viewBox="0 0 48 48">
      <path d="M46,22H26V2a2,2,0,0,0-2-2h0a2,2,0,0,0-2,2V22H2a2,2,0,0,0-2,2H0a2,2,0,0,0,2,2H22V46a2,2,0,0,0,2,2h0a2,2,0,0,0,2-2V26H46a2,2,0,0,0,2-2h0A2,2,0,0,0,46,22Z"/>
    </symbol>

    <symbol id="icon-tool-tip" viewBox="0 0 10 10">
      <path d="M5.1,8.345a.828.828,0,1,0,.828.828A.828.828,0,0,0,5.1,8.345Z"/>
      <path d="M5,0A2.773,2.773,0,0,0,2.226,2.774a.828.828,0,0,0,1.655,0,1.1,1.1,0,0,1,2.19,0,1.1,1.1,0,0,1-.292.73l-.974.924A1.716,1.716,0,0,0,4.27,5.669v.584a.828.828,0,0,0,1.655,0V5.669a.088.088,0,0,1,.024-.049l1-.948a2.947,2.947,0,0,0,.828-1.9A2.773,2.773,0,0,0,5,0Z"/>
    </symbol>

    <symbol id="icon-enter-full-screen" viewBox="0 0 16 16">
        <path d="M5.861,9.2l-3.029,3.03L1.394,10.787c-.2-.2-.41-.138-.46.146L0,16l5.068-.934c.283-.049.349-.256.145-.459L3.775,13.169l3.03-3.03A.668.668,0,1,0,5.861,9.2Z"/>
        <path d="M10.929.933c-.284.049-.35.256-.146.459l1.445,1.443L9.2,5.863a.667.667,0,0,0,.944.942l3.034-3.027,1.433,1.43c.2.2.41.138.459-.146L16,0Z"/>
    </symbol>
    <symbol id="icon-exit-full-screen" viewBox="0 0 16 16">
        <path d="M15.805.2a.668.668,0,0,0-.943,0l-3.03,3.03L10.393,1.787c-.2-.2-.41-.138-.459.145L9,7l5.068-.934c.283-.049.349-.256.145-.459L12.776,4.168l3.029-3.029A.669.669,0,0,0,15.805.2Z"/>
        <path d="M1.783,10.392l1.445,1.443L.2,14.863a.667.667,0,0,0,.945.942l3.033-3.028,1.433,1.431c.2.2.41.137.459-.146L7,9l-5.071.933C1.645,9.982,1.579,10.188,1.783,10.392Z"/>
    </symbol>
    <symbol id="icon-more-menu" viewBox="0 0 16 16">
        <path d="M3,6.5A1.5,1.5,0,1,1,1.5,8,1.5,1.5,0,0,1,3,6.5Z"/>
        <path d="M8,6.5A1.5,1.5,0,1,1,6.5,8,1.5,1.5,0,0,1,8,6.5Z"/>
        <path d="M13,6.5A1.5,1.5,0,1,1,11.5,8,1.5,1.5,0,0,1,13,6.5Z"/>
    </symbol>
    <symbol id="icon-zoom-in" viewBox="0 0 16 16">
        <path d="M15,7H9V1A1,1,0,0,0,7,1V7H1A1,1,0,0,0,1,9H7v6a1,1,0,0,0,2,0V9h6a1,1,0,0,0,0-2Z"/>
    </symbol>
    <symbol id="icon-zoom-out" viewBox="0 0 16 16">
        <rect x="7" width="2" height="16" rx="1" transform="translate(16) rotate(90)"/>
    </symbol>
    <symbol id="icon-zoom-toggle" viewBox="0 0 16 16">
        <path d="M8,1A7,7,0,1,1,1,8,7.008,7.008,0,0,1,8,1M8,0a8,8,0,1,0,8,8A8,8,0,0,0,8,0Z"/>
        <path d="M8,7A1,1,0,1,1,7,8,1,1,0,0,1,8,7M8,6a2,2,0,1,0,2,2A2,2,0,0,0,8,6Z"/>
    </symbol>
    <symbol id="icon-zoom-fit" viewBox="0 0 16 16">
        <path d="M8,2A6,6,0,1,1,2,8,6.007,6.007,0,0,1,8,2M8,0a8,8,0,1,0,8,8A8,8,0,0,0,8,0Z"/>
        <path opacity="0.4" d="M8,7A1,1,0,1,1,7,8,1,1,0,0,1,8,7M8,6a2,2,0,1,0,2,2A2,2,0,0,0,8,6Z"/>
    </symbol>
    <symbol id="icon-zoom-out-max" viewBox="0 0 16 16">
        <path opacity="0.4" d="M8,1A7,7,0,1,1,1,8,7.008,7.008,0,0,1,8,1M8,0a8,8,0,1,0,8,8A8,8,0,0,0,8,0Z"/>
        <path d="M8,11a3,3,0,1,1,3-3A3,3,0,0,1,8,11ZM8,7A1,1,0,1,0,9,8,1,1,0,0,0,8,7Z"/>
    </symbol>
    <symbol id="icon-viz-donut-tworing" viewBox="0 0 24 24">
      <path d="M22 13c-.5 5-4.8 9-9.9 9C6.5 22 2 17.5 2 12c0-2.2.7-4.3 2-6L2.6 4.6C1 6.7 0 9.2 0 12c0 6.6 5.4 12 12 12 6.3 0 11.4-4.8 11.9-11H22zM5.4 4.6C7.1 3 9.5 2 12 2c5.2 0 9.4 4 9.9 9h2C23.5 4.8 18.3 0 12 0 8.9 0 6 1.2 3.9 3.2l1.5 1.4z"/>
      <path d="M8.3 7.3C9.3 6.5 10.6 6 12 6c3 0 5.4 2.2 5.9 5h2C19.4 7.1 16 4 12 4c-2 0-3.8.7-5.2 1.9l1.5 1.4z"/>
      <g>
        <path d="M7.1 15.5C6.4 14.5 6 13.3 6 12c0-1.2.4-2.3 1-3.2L5.5 7.4C4.6 8.7 4 10.3 4 12c0 1.8.6 3.5 1.7 4.9l1.4-1.4zM17.9 13c-.5 2.8-2.9 5-5.9 5-1.3 0-2.5-.4-3.5-1.1l-1.4 1.4C8.5 19.4 10.2 20 12 20c4.1 0 7.4-3.1 7.9-7h-2z"/>
      </g>
    </symbol>
    <symbol id="icon-viz-bar-chart" viewBox="0 0 24 24">
      <path d="M1 15h4v9H1zM7 10h4v14H7zM13 0h4v24h-4zM19 6h4v18h-4z"/>
    </symbol>
    <symbol id="icon-camera" viewBox="0 0 24 24">
      <path d="M22 5h-5.3c-.1-.6-.3-1.2-.4-1.7-.2-1-.8-1.3-1.3-1.3H9c-.5 0-1.1.3-1.3 1.3-.1.5-.3 1.1-.4 1.7H2C.9 5 0 5.9 0 7v12c0 1.1.9 2 2 2h20c1.1 0 2-.9 2-2V7c0-1.1-.9-2-2-2zM12 19c-3.3 0-6-2.7-6-6s2.7-6 6-6 6 2.7 6 6-2.7 6-6 6z"/>
      <circle cx="12" cy="13" r="4.5"/>
    </symbol>
    <symbol id="icon-printer" viewBox="0 0 24 24">
      <path d="M21.6 9H20V0H4v9H2.4C1.1 9 0 10.1 0 11.4v7.2C0 19.9 1.1 21 2.4 21H4v3h16v-3h1.6c1.3 0 2.4-1.1 2.4-2.4v-7.2c0-1.3-1.1-2.4-2.4-2.4zM6 2h12v7H6V2zm12 20H6v-5h12v5zm4-3.4c0 .2-.2.4-.4.4H20v-2c.6 0 1-.4 1-1s-.4-1-1-1H4c-.6 0-1 .4-1 1s.4 1 1 1v2H2.4c-.2 0-.4-.2-.4-.4v-7.2c0-.2.2-.4.4-.4H21.6c.2 0 .4.2.4.4v7.2z"/>
      <path d="M8.5 12h-4c-.6 0-1 .4-1 1s.4 1 1 1h4c.6 0 1-.4 1-1s-.4-1-1-1zM7 18h10v2H7z"/>
    </symbol>
    <symbol id="icon-reticle32" viewBox="0 0 32 32">
      <path d="M32 15h-4.1C27.5 9.2 22.8 4.5 17 4.1V0h-2v4.1C9.2 4.5 4.5 9.2 4.1 15H0v2h4.1c.4 5.8 5.1 10.5 10.9 10.9V32h2v-4.1c5.8-.5 10.5-5.1 10.9-10.9H32v-2zM17 25.9V22h-2v3.9c-4.7-.5-8.5-4.2-8.9-8.9H10v-2H6.1c.5-4.7 4.2-8.5 8.9-8.9V10h2V6.1c4.7.5 8.5 4.2 8.9 8.9H22v2h3.9c-.4 4.7-4.2 8.5-8.9 8.9z"/>
    </symbol>
    <symbol id="icon-snapshot" viewBox="0 0 32 32">
      <path d="M31.4 30.2l-9.8-9.8c1.9-2.1 3.1-4.9 3.1-8 0-6.6-5.4-12-12-12s-12 5.4-12 12 5.4 12 12 12c2.8 0 5.4-1 7.5-2.6l9.8 9.8 1.4-1.4zM12.9 16.4h8.8c-1.3 2.9-3.8 5-6.9 5.7l-3.3-5.7h1.4zm9.3-1h-6.5l1.7-3 3.4-5.8c1.2 1.6 1.9 3.6 1.9 5.8-.1 1-.2 2-.5 3zm-2.1-9.6l-3.3 5.6-1.7-3-3.4-6h.9c3 0 5.7 1.3 7.5 3.4zm-9.5-3.2l3.3 5.8H3.5c1.3-2.9 3.9-5.1 7.1-5.8zm-8 9.8c0-1 .2-2.1.5-3h6.8l-.5.9-1.2 2.1-3.5 6c-1.3-1.7-2.1-3.7-2.1-6zm2.8 6.8l3.4-5.8.6 1 1.1 1.9 3.4 5.9c-.4 0-.8.1-1.2.1-2.9.1-5.5-1.1-7.3-3.1z"/>
    </symbol>
    <symbol id="icon-investigation32" viewBox="0 0 32 32">
      <path d="M31.4 30.2l-9.8-9.8c1.9-2.1 3.1-4.9 3.1-8 0-6.6-5.4-12-12-12s-12 5.4-12 12 5.4 12 12 12c2.8 0 5.4-1 7.5-2.6l9.8 9.8 1.4-1.4zM2.6 12.4c0-5.5 4.5-10 10-10s10 4.5 10 10-4.5 10-10 10-10-4.5-10-10z"/><path d="M21.6 12.1c-.1-.1-3.5-5.1-9-5.1s-8.9 4.9-9 5.1v.2c.1.1 3.5 5.1 9 5.1s8.9-4.9 9-5.1v-.1s.1-.1 0-.1zm-8.8 3.3c-1.8 0-3.2-1.5-3.2-3.3s1.5-3.3 3.2-3.3c1.8 0 3.2 1.5 3.2 3.3s-1.4 3.3-3.2 3.3z"/><path d="M14.4 11.9c-1 0-1.8-.8-1.8-1.8 0-.2 0-.3.1-.5-1.3.1-2.3 1.2-2.3 2.5 0 1.4 1.1 2.5 2.5 2.5s2.5-1.1 2.5-2.5v-.4c-.4.2-.7.2-1 .2z"/>
    </symbol>
    <symbol id="icon-orbital-query" viewBox="0 0 24 24">
      <path d="M23.7 22.3l-7.6-7.6c1.3-1.5 2-3.5 2-5.7h-2c0 3.9-3.1 7-7 7s-7-3.1-7-7 3.1-7 7-7c2.3 0 4.4 1.1 5.7 3H12c-.6 0-1 .4-1 1s.4 1 1 1h6V1c0-.6-.4-1-1-1s-1 .4-1 1v2.2C14.3 1.2 11.8 0 9.1 0c-5 0-9 4-9 9s4 9 9 9c2.1 0 4-.7 5.6-1.9l7.6 7.6 1.4-1.4z"/>
    </symbol>
    <symbol id="icon-ellipsis24" viewBox="0 0 24 24">
      <circle cx="12" cy="12" r="3"/>
      <circle cx="21" cy="12" r="3"/>
      <circle cx="3" cy="12" r="3"/>
    </symbol>
    <symbol id="icon-incident-report32" viewBox="0 0 32 32">
      <path d="M29.8 30.3l-7-13.7c-.1-.4-.5-.6-.8-.6-.3 0-.7.2-.8.6l-7 13.8c-.2.3-.2.8 0 1.1.2.3.5.6.8.6h14c.5 0 1-.5 1-1.1 0-.3-.1-.5-.2-.7zM22 31c-.6 0-1-.4-1-1s.4-1 1-1 1 .4 1 1-.4 1-1 1zm1-3h-2v-7h2v7z"/>
      <path d="M16.8 0H2v32h10.2c-.2-.6-.3-1.3-.1-2H4V2h11v9h9v3.8c.2.2.5.5.6.8l1.4 2.7v-9L16.8 0zm.2 3.1L22.8 9H17V3.1z"/>
      <path d="M15.6 23H7v2h7.6zM17.7 19H7v2h9.6zM20.9 17h.1v-.1zM19.4 15.6c.1-.2.3-.5.4-.6H7v2h11.7l.7-1.4z"/>
    </symbol>
    <symbol id="icon-export24" viewBox="0 0 24 24">
      <path d="M2 12h7v2H2zM15 12h7v2h-7zM2 17h20v2H2zM2 22h20v2H2z"/>
      <path d="M12 0L4.9 6.6l1.4 1.5L11 3.6V15h2V3.6l4.7 4.5 1.4-1.5L12 0z"/>
    </symbol>
    <symbol id="icon-small-x-close" viewBox="0 0 10 10">
      <polygon points="9 2 8 1 5 4 2 1 1 2 4 5 1 8 2 9 5 6 8 9 9 8 6 5 9 2"/>
    </symbol>
    <symbol id="icon-unlink-broken-chain-24" viewBox="0 0 24 24">
      <path d="M1.06 2.515l1.414-1.414 4.242 4.242-1.414 1.415zM17.283 18.657l1.415-1.414 4.242 4.243-1.414 1.414zM8 .8h2v4.6H8zM.5 8h4.6v2H.5zM14 18.8h2v4.6h-2zM18.8 14h4.6v2h-4.6zM22.6 4.2l-2.8-2.8c-1.2-1.2-3.1-1.2-4.2 0l-4.2 4.2c-1.2 1.2-1.2 3.1 0 4.2l1.4-1.4c-.4-.4-.4-1 0-1.4L17 2.8c.4-.4 1-.4 1.4 0l2.8 2.8c.4.4.4 1 0 1.4L17 11.3c-.4.4-1 .4-1.4 0l-1.4 1.4c1.2 1.2 3.1 1.2 4.2 0l4.2-4.2c1.2-1.2 1.2-3.1 0-4.3zM12.7 14.1l-1.4 1.4c.4.4.4 1 0 1.4l-4.2 4.2c-.4.4-1 .4-1.4 0l-2.8-2.8c-.4-.4-.4-1 0-1.4l4.2-4.2c.4-.4 1-.4 1.4 0l1.4-1.4c-1.2-1.2-3.1-1.2-4.2 0l-4.2 4.2c-1.2 1.2-1.2 3.1 0 4.2l2.8 2.8c1.2 1.2 3.1 1.2 4.2 0l4.2-4.2c1.2-1.1 1.2-3 0-4.2z"/>
    </symbol>
</svg>